<svg width="64" height="64" viewBox="0 0 64 64" fill="none" xmlns="http://www.w3.org/2000/svg">
<path fill-rule="evenodd" clip-rule="evenodd" d="M15.2575 9.84534L20.5 12.8719C20.9783 13.148 21.1422 13.7596 20.866 14.2379C20.5899 14.7162 19.9783 14.8801 19.5 14.604L15.2575 12.1547L6.00011 17.499L15.2575 22.8434L17.3554 21.6322C17.8337 21.3561 18.4452 21.52 18.7214 21.9983C18.9975 22.4766 18.8336 23.0882 18.3553 23.3643L16.2575 24.5754V52.2661L22 48.9508C22.4783 48.6747 23.0899 48.8386 23.366 49.3169C23.6422 49.7952 23.4783 50.4068 23 50.6829L15.2575 55.1527L3 48.0764V16.9217L15.2575 9.84534ZM14.2575 52.2661V24.5754L5 19.231V46.9217L14.2575 52.2661Z" fill="black"/>
<path fill-rule="evenodd" clip-rule="evenodd" d="M48.2575 9.84534L60.5149 16.9217V48.0764L48.2575 55.1527L36 48.0764V16.9217L48.2575 9.84534ZM38 19.231L47.2575 24.5754V52.2661L38 46.9217V19.231ZM49.2575 52.2661L58.5149 46.9217V19.231L53.9532 21.8645C53.4749 22.1407 52.8633 21.9768 52.5872 21.4985C52.311 21.0202 52.4749 20.4086 52.9532 20.1325L57.5148 17.499L48.2575 12.1547L39.0001 17.499L48.2575 22.8434L50.3554 21.6322C50.8337 21.3561 51.4452 21.52 51.7214 21.9983C51.9975 22.4766 51.8336 23.0882 51.3553 23.3643L49.2575 24.5754V52.2661Z" fill="black"/>
<path fill-rule="evenodd" clip-rule="evenodd" d="M31.2575 2.84534L43.5149 9.92166V13.9985C43.5149 14.5508 43.0672 14.9985 42.5149 14.9985C41.9626 14.9985 41.5149 14.5508 41.5149 13.9985V12.231L36.9532 14.8645C36.4749 15.1407 35.8633 14.9768 35.5872 14.4985C35.311 14.0202 35.4749 13.4086 35.9532 13.1325L40.5148 10.499L31.2575 5.1547L22.0001 10.499L31.2575 15.8434L33.3554 14.6322C33.8337 14.3561 34.4452 14.52 34.7214 14.9983C34.9975 15.4766 34.8336 16.0882 34.3553 16.3643L32.2575 17.5754V53.2661L39.809 48.9065C40.2873 48.6304 40.8989 48.7942 41.175 49.2725C41.4512 49.7509 41.2873 50.3624 40.809 50.6386L31.2575 56.1527L19 49.0764V9.92166L31.2575 2.84534ZM30.2575 53.2661V17.5754L21 12.231V47.9217L30.2575 53.2661Z" fill="black"/>
</svg>
