<svg width="64" height="64" viewBox="0 0 64 64" fill="none" xmlns="http://www.w3.org/2000/svg">
<path fill-rule="evenodd" clip-rule="evenodd" d="M5 4H59V20H5V4Z" fill="black"/>
<path fill-rule="evenodd" clip-rule="evenodd" d="M5 24H21V40H5V24ZM7 26V38H19V26H7Z" fill="black"/>
<path fill-rule="evenodd" clip-rule="evenodd" d="M24 24H40V40H24V24ZM26 26V38H38V26H26Z" fill="black"/>
<path fill-rule="evenodd" clip-rule="evenodd" d="M43 24H59V40H43V24ZM45 26V38H57V26H45Z" fill="black"/>
<path fill-rule="evenodd" clip-rule="evenodd" d="M5 44H21V60H5V44ZM7 46V58H19V46H7Z" fill="black"/>
<path fill-rule="evenodd" clip-rule="evenodd" d="M24 44H40V60H24V44ZM26 46V58H38V46H26Z" fill="black"/>
<path fill-rule="evenodd" clip-rule="evenodd" d="M43 44H59V60H43V44ZM45 46V58H57V46H45Z" fill="black"/>
</svg>
